<mxfile host="65bd71144e">
    <diagram id="Fp96KT5mVXTfN0SuO6Ad" name="Page-1">
        <mxGraphModel dx="451" dy="363" grid="1" gridSize="10" guides="1" tooltips="1" connect="1" arrows="1" fold="1" page="0" pageScale="1" pageWidth="827" pageHeight="1169" math="0" shadow="1">
            <root>
                <mxCell id="0"/>
                <mxCell id="1" parent="0"/>
                <mxCell id="15" value="" style="edgeStyle=none;html=1;strokeWidth=3;" parent="1" source="2" target="10" edge="1">
                    <mxGeometry relative="1" as="geometry"/>
                </mxCell>
                <mxCell id="2" value="selectHelmet&lt;br&gt;(i, helmetSize[], helmetPrice[])" style="strokeWidth=3;html=1;shape=mxgraph.flowchart.terminator;whiteSpace=wrap;fillColor=#d80073;strokeColor=#A50040;shadow=1;fontColor=#ffffff;" parent="1" vertex="1">
                    <mxGeometry x="80" y="50" width="183.33" height="110" as="geometry"/>
                </mxCell>
                <mxCell id="19" value="" style="edgeStyle=none;html=1;strokeWidth=3;" parent="1" source="10" target="18" edge="1">
                    <mxGeometry relative="1" as="geometry"/>
                </mxCell>
                <mxCell id="10" value="&lt;span style=&quot;color: rgb(255, 255, 255);&quot;&gt;Prompt:&lt;/span&gt;&lt;br&gt;&lt;span style=&quot;color: rgb(255, 255, 255);&quot;&gt;&quot;Please choose your helmet size (S/M/L/XL): &quot;&lt;/span&gt;" style="shape=parallelogram;perimeter=parallelogramPerimeter;whiteSpace=wrap;html=1;fixedSize=1;fillColor=#008a00;strokeColor=#005700;fontColor=#ffffff;strokeWidth=3;shadow=1;" parent="1" vertex="1">
                    <mxGeometry x="27.5" y="210" width="288.33" height="60" as="geometry"/>
                </mxCell>
                <mxCell id="21" value="" style="edgeStyle=none;html=1;strokeWidth=3;" parent="1" source="18" edge="1">
                    <mxGeometry relative="1" as="geometry">
                        <mxPoint x="171.67590909090904" y="430" as="targetPoint"/>
                    </mxGeometry>
                </mxCell>
                <mxCell id="18" value="Input:&lt;br&gt;helmetSize[i]" style="shape=parallelogram;perimeter=parallelogramPerimeter;whiteSpace=wrap;html=1;fixedSize=1;fillColor=#e3c800;strokeColor=#B09500;fontColor=#FFFFFF;strokeWidth=3;shadow=1;labelBackgroundColor=none;labelBorderColor=none;textShadow=0;" parent="1" vertex="1">
                    <mxGeometry x="111.66499999999999" y="320" width="120" height="60" as="geometry"/>
                </mxCell>
                <mxCell id="34" value="helmetSize[i] == &quot;S&quot;" style="rhombus;whiteSpace=wrap;html=1;fillColor=#1ba1e2;fontColor=#ffffff;strokeColor=#006EAF;strokeWidth=3;" parent="1" vertex="1">
                    <mxGeometry x="101.66999999999999" y="540" width="140" height="140" as="geometry"/>
                </mxCell>
                <mxCell id="38" value="helmetPrice[i] = 2" style="whiteSpace=wrap;html=1;fillColor=#fa6800;strokeColor=#C73500;fontColor=#FFFFFF;strokeWidth=3;" parent="1" vertex="1">
                    <mxGeometry x="295.84" y="580" width="120" height="60" as="geometry"/>
                </mxCell>
                <mxCell id="42" value="" style="edgeStyle=none;html=1;strokeWidth=3;exitX=0.5;exitY=1;exitDx=0;exitDy=0;rounded=0;curved=0;" parent="1" edge="1">
                    <mxGeometry relative="1" as="geometry">
                        <mxPoint x="355.96999999999997" y="640" as="sourcePoint"/>
                        <mxPoint x="170" y="710" as="targetPoint"/>
                        <Array as="points">
                            <mxPoint x="356" y="710"/>
                        </Array>
                    </mxGeometry>
                </mxCell>
                <mxCell id="43" value="helmetSize[i] == &quot;M&quot;" style="rhombus;whiteSpace=wrap;html=1;fillColor=#1ba1e2;fontColor=#ffffff;strokeColor=#006EAF;strokeWidth=3;" parent="1" vertex="1">
                    <mxGeometry x="101.66999999999999" y="730" width="140" height="140" as="geometry"/>
                </mxCell>
                <mxCell id="44" value="helmetPrice[i] = 4" style="whiteSpace=wrap;html=1;fillColor=#fa6800;strokeColor=#C73500;fontColor=#FFFFFF;strokeWidth=3;" parent="1" vertex="1">
                    <mxGeometry x="295.84" y="770" width="120" height="60" as="geometry"/>
                </mxCell>
                <mxCell id="47" value="" style="edgeStyle=none;html=1;strokeWidth=3;exitX=0.5;exitY=1;exitDx=0;exitDy=0;rounded=0;curved=0;" parent="1" edge="1">
                    <mxGeometry relative="1" as="geometry">
                        <mxPoint x="355.96999999999997" y="830" as="sourcePoint"/>
                        <mxPoint x="170" y="900" as="targetPoint"/>
                        <Array as="points">
                            <mxPoint x="356" y="900"/>
                        </Array>
                    </mxGeometry>
                </mxCell>
                <mxCell id="48" value="helmetSize[i] == &quot;L&quot;" style="rhombus;whiteSpace=wrap;html=1;fillColor=#1ba1e2;fontColor=#ffffff;strokeColor=#006EAF;strokeWidth=3;" parent="1" vertex="1">
                    <mxGeometry x="101.66999999999999" y="920" width="140" height="140" as="geometry"/>
                </mxCell>
                <mxCell id="49" value="helmetPrice[i] = 6" style="whiteSpace=wrap;html=1;fillColor=#fa6800;strokeColor=#C73500;fontColor=#FFFFFF;strokeWidth=3;" parent="1" vertex="1">
                    <mxGeometry x="295.84" y="960" width="120" height="60" as="geometry"/>
                </mxCell>
                <mxCell id="52" value="" style="edgeStyle=none;html=1;strokeWidth=3;exitX=0.5;exitY=1;exitDx=0;exitDy=0;rounded=0;curved=0;" parent="1" edge="1">
                    <mxGeometry relative="1" as="geometry">
                        <mxPoint x="355.96999999999997" y="1020" as="sourcePoint"/>
                        <mxPoint x="170" y="1090" as="targetPoint"/>
                        <Array as="points">
                            <mxPoint x="356" y="1090"/>
                        </Array>
                    </mxGeometry>
                </mxCell>
                <mxCell id="94" value="" style="edgeStyle=none;html=1;" edge="1" parent="1" source="53" target="48">
                    <mxGeometry relative="1" as="geometry"/>
                </mxCell>
                <mxCell id="53" value="helmetSize[i] == &quot;XL&quot;" style="rhombus;whiteSpace=wrap;html=1;fillColor=#1ba1e2;fontColor=#ffffff;strokeColor=#006EAF;strokeWidth=3;" parent="1" vertex="1">
                    <mxGeometry x="101.66999999999999" y="1110" width="140" height="140" as="geometry"/>
                </mxCell>
                <mxCell id="54" value="helmetPrice[i] = 8" style="whiteSpace=wrap;html=1;fillColor=#fa6800;strokeColor=#C73500;fontColor=#FFFFFF;strokeWidth=3;" parent="1" vertex="1">
                    <mxGeometry x="295.84" y="1150" width="120" height="60" as="geometry"/>
                </mxCell>
                <mxCell id="57" value="" style="edgeStyle=none;html=1;strokeWidth=3;exitX=0.5;exitY=1;exitDx=0;exitDy=0;rounded=0;curved=0;" parent="1" edge="1" source="54">
                    <mxGeometry relative="1" as="geometry">
                        <mxPoint x="355.96999999999997" y="1210" as="sourcePoint"/>
                        <mxPoint x="170" y="1280" as="targetPoint"/>
                        <Array as="points">
                            <mxPoint x="356" y="1280"/>
                        </Array>
                    </mxGeometry>
                </mxCell>
                <mxCell id="58" value="return helmetPrice[i]" style="strokeWidth=3;html=1;shape=mxgraph.flowchart.terminator;whiteSpace=wrap;fillColor=#d80073;strokeColor=#A50040;shadow=1;fontColor=#ffffff;" parent="1" vertex="1">
                    <mxGeometry x="80" y="1300" width="183.33" height="110" as="geometry"/>
                </mxCell>
                <mxCell id="85" value="&lt;font style=&quot;color: rgb(255, 255, 255);&quot;&gt;helmetSize[i] =&lt;/font&gt;&lt;div&gt;&lt;font style=&quot;color: rgb(255, 255, 255);&quot;&gt;getValidSizeInput&lt;br&gt;(&quot;helmet size&quot;)&lt;/font&gt;&lt;/div&gt;" style="whiteSpace=wrap;html=1;fillColor=#fa6800;fontColor=#000000;strokeColor=#C73500;strokeWidth=3;" vertex="1" parent="1">
                    <mxGeometry x="111.66" y="430" width="120" height="60" as="geometry"/>
                </mxCell>
                <mxCell id="86" value="" style="edgeStyle=none;orthogonalLoop=1;jettySize=auto;html=1;strokeWidth=3;" edge="1" parent="1">
                    <mxGeometry width="100" relative="1" as="geometry">
                        <mxPoint x="171.28" y="490" as="sourcePoint"/>
                        <mxPoint x="171.28" y="540" as="targetPoint"/>
                        <Array as="points"/>
                    </mxGeometry>
                </mxCell>
                <mxCell id="87" value="True" style="edgeStyle=none;orthogonalLoop=1;jettySize=auto;html=1;exitX=1;exitY=0.5;exitDx=0;exitDy=0;entryX=0;entryY=0.5;entryDx=0;entryDy=0;strokeWidth=3;" edge="1" parent="1" source="34" target="38">
                    <mxGeometry x="-0.3232" width="100" relative="1" as="geometry">
                        <mxPoint x="230" y="640" as="sourcePoint"/>
                        <mxPoint x="330" y="640" as="targetPoint"/>
                        <Array as="points"/>
                        <mxPoint as="offset"/>
                    </mxGeometry>
                </mxCell>
                <mxCell id="88" value="False" style="edgeStyle=none;orthogonalLoop=1;jettySize=auto;html=1;entryX=0.5;entryY=0;entryDx=0;entryDy=0;exitX=0.5;exitY=1;exitDx=0;exitDy=0;strokeWidth=3;" edge="1" parent="1" source="34" target="43">
                    <mxGeometry x="-0.6" width="100" relative="1" as="geometry">
                        <mxPoint x="160" y="670" as="sourcePoint"/>
                        <mxPoint x="260" y="670" as="targetPoint"/>
                        <Array as="points"/>
                        <mxPoint as="offset"/>
                    </mxGeometry>
                </mxCell>
                <mxCell id="89" value="True" style="edgeStyle=none;orthogonalLoop=1;jettySize=auto;html=1;exitX=1;exitY=0.5;exitDx=0;exitDy=0;entryX=0;entryY=0.5;entryDx=0;entryDy=0;strokeWidth=3;" edge="1" parent="1">
                    <mxGeometry x="-0.3232" width="100" relative="1" as="geometry">
                        <mxPoint x="241.83999999999997" y="799.84" as="sourcePoint"/>
                        <mxPoint x="295.84000000000003" y="799.84" as="targetPoint"/>
                        <Array as="points"/>
                        <mxPoint as="offset"/>
                    </mxGeometry>
                </mxCell>
                <mxCell id="90" value="True" style="edgeStyle=none;orthogonalLoop=1;jettySize=auto;html=1;exitX=1;exitY=0.5;exitDx=0;exitDy=0;entryX=0;entryY=0.5;entryDx=0;entryDy=0;strokeWidth=3;" edge="1" parent="1">
                    <mxGeometry x="-0.3232" width="100" relative="1" as="geometry">
                        <mxPoint x="241.67" y="989.84" as="sourcePoint"/>
                        <mxPoint x="295.67" y="989.84" as="targetPoint"/>
                        <Array as="points"/>
                        <mxPoint as="offset"/>
                    </mxGeometry>
                </mxCell>
                <mxCell id="91" value="True" style="edgeStyle=none;orthogonalLoop=1;jettySize=auto;html=1;exitX=1;exitY=0.5;exitDx=0;exitDy=0;entryX=0;entryY=0.5;entryDx=0;entryDy=0;strokeWidth=3;" edge="1" parent="1">
                    <mxGeometry x="-0.3232" width="100" relative="1" as="geometry">
                        <mxPoint x="241.83999999999997" y="1179.76" as="sourcePoint"/>
                        <mxPoint x="295.84" y="1179.76" as="targetPoint"/>
                        <Array as="points"/>
                        <mxPoint as="offset"/>
                    </mxGeometry>
                </mxCell>
                <mxCell id="92" value="False" style="edgeStyle=none;orthogonalLoop=1;jettySize=auto;html=1;entryX=0.5;entryY=0;entryDx=0;entryDy=0;exitX=0.5;exitY=1;exitDx=0;exitDy=0;strokeWidth=3;" edge="1" parent="1">
                    <mxGeometry x="-0.6" width="100" relative="1" as="geometry">
                        <mxPoint x="171.43" y="870" as="sourcePoint"/>
                        <mxPoint x="171.43" y="920" as="targetPoint"/>
                        <Array as="points"/>
                        <mxPoint as="offset"/>
                    </mxGeometry>
                </mxCell>
                <mxCell id="93" value="False" style="edgeStyle=none;orthogonalLoop=1;jettySize=auto;html=1;entryX=0.5;entryY=0;entryDx=0;entryDy=0;exitX=0.5;exitY=1;exitDx=0;exitDy=0;strokeWidth=3;" edge="1" parent="1">
                    <mxGeometry x="-0.6" width="100" relative="1" as="geometry">
                        <mxPoint x="171.5" y="1060" as="sourcePoint"/>
                        <mxPoint x="171.5" y="1110" as="targetPoint"/>
                        <Array as="points"/>
                        <mxPoint as="offset"/>
                    </mxGeometry>
                </mxCell>
                <mxCell id="95" value="False" style="edgeStyle=none;orthogonalLoop=1;jettySize=auto;html=1;entryX=0.5;entryY=0;entryDx=0;entryDy=0;exitX=0.5;exitY=1;exitDx=0;exitDy=0;strokeWidth=3;" edge="1" parent="1">
                    <mxGeometry x="-0.6" width="100" relative="1" as="geometry">
                        <mxPoint x="171.43" y="1250" as="sourcePoint"/>
                        <mxPoint x="171.43" y="1300" as="targetPoint"/>
                        <Array as="points"/>
                        <mxPoint as="offset"/>
                    </mxGeometry>
                </mxCell>
            </root>
        </mxGraphModel>
    </diagram>
</mxfile>